<svg xmlns="http://www.w3.org/2000/svg" version="1.1" xmlns:xlink="http://www.w3.org/1999/xlink" xmlns:svgjs="http://svgjs.dev/svgjs" width="1000" height="1000" viewBox="0 0 1000 1000"><rect width="1000" height="1000" fill="#ffffff"></rect><g transform="matrix(0.7,0,0,0.7,149.57576748795202,423.16013628490373)"><svg viewBox="0 0 396 87" data-background-color="#ffffff" preserveAspectRatio="xMidYMid meet" height="219" width="1000" xmlns="http://www.w3.org/2000/svg" xmlns:xlink="http://www.w3.org/1999/xlink"><g id="tight-bounds" transform="matrix(1,0,0,1,0.23999440165675878,0.10775044496659802)"><svg viewBox="0 0 395.52 86.78449911006679" height="86.78449911006679" width="395.52"><g><svg viewBox="0 0 395.52 86.78449911006679" height="86.78449911006679" width="395.52"><g transform="matrix(1,0,0,1,0,53.63630207145263)"><svg viewBox="0 0 395.52 33.14819703861416" height="33.14819703861416" width="395.52"><g id="textblocktransform"><svg viewBox="0 0 395.52 33.14819703861416" height="33.14819703861416" width="395.52" id="textblock"><g><svg viewBox="0 0 395.52 33.14819703861416" height="33.14819703861416" width="395.52"><g transform="matrix(1,0,0,1,0,0)"><svg width="395.52" viewBox="0.30000001192092896 -37.599998474121094 516.6099853515625 43.29999923706055" height="33.14819703861416" data-palette-color="#fce44d"><path d="M19.1-36.8L19.1-36.8 23.05-10.3 28.5-37.4 35.7-37.4 27.75 0 21.7 0 17.45-26.15 11.9 0 4.7 0 11.9-33.95Q8.55-32.55 6.75-29.75 4.95-26.95 4.95-23.05L4.95-23.05Q4.95-22.1 5.08-21.4 5.2-20.7 5.5-20.05L5.5-20.05Q5.6-19.85 5.63-19.78 5.65-19.7 5.65-19.65L5.65-19.65Q2.85-19.65 1.58-20.83 0.3-22 0.3-24.5L0.3-24.5Q0.3-26.9 1.5-29.38 2.7-31.85 4.8-33.75L4.8-33.75Q6.8-35.6 9.28-36.55 11.75-37.5 14.45-37.5L14.45-37.5Q16.4-37.5 17.38-37.33 18.35-37.15 19.1-36.8ZM57.25-20.35L60.15-33.95Q58.1-32.85 55.8-29.83 53.5-26.8 51.15-22.1L51.15-22.1Q52.95-21.75 54.47-21.3 56-20.85 57.25-20.35L57.25-20.35ZM64.05-37.5L64.05-37.5Q65.1-37.5 66.15-37.33 67.2-37.15 68-36.8L68-36.8 60.15 0 52.95 0 56.8-18.15Q55.05-18.95 53.5-19.38 51.95-19.8 50.1-19.95L50.1-19.95Q47.25-13.75 45.42-7.35 43.6-0.95 43.6 2.9L43.6 2.9Q43.6 3.8 43.77 4.48 43.95 5.15 44.3 5.7L44.3 5.7Q40.5 5.7 39.05 4.4 37.6 3.1 37.6 0.4L37.6 0.4Q37.6-2.95 39.62-8.55 41.65-14.15 44.95-19.95L44.95-19.95Q42.4-19.8 40.97-19.15 39.55-18.5 39.1-17.35L39.1-17.35Q39.3-17.35 39.52-16.82 39.75-16.3 39.75-15.8L39.75-15.8Q39.75-14.95 38.95-14.4 38.15-13.85 36.95-13.85L36.95-13.85Q35.55-13.85 34.7-14.63 33.85-15.4 33.85-16.75L33.85-16.75Q33.85-19.35 36.77-21.13 39.7-22.9 44.05-22.9L44.05-22.9Q44.55-22.9 45.2-22.88 45.85-22.85 46.65-22.75L46.65-22.75Q51.05-29.7 55.6-33.6 60.15-37.5 64.05-37.5ZM88.8-10.45L99.8-36.8 107-36.8 101.75 0 94.55 0 97.75-22.45 88.34 0 81.5 0 82.5-22.55 74.14 0 70.14 0 82.84-34.35Q79-33.05 76.95-30.15 74.89-27.25 74.89-23.1L74.89-23.1Q74.89-22.1 75.02-21.38 75.14-20.65 75.45-20.05L75.45-20.05Q75.55-19.85 75.57-19.78 75.59-19.7 75.59-19.65L75.59-19.65Q72.89-19.65 71.57-20.78 70.25-21.9 70.25-24.2L70.25-24.2Q70.25-26.6 71.72-29.08 73.2-31.55 75.8-33.6L75.8-33.6Q78.15-35.45 80.84-36.48 83.55-37.5 86.15-37.5L86.15-37.5Q87.09-37.5 88.07-37.33 89.05-37.15 89.95-36.8L89.95-36.8 88.8-10.45ZM129.99-20.35L132.89-33.95Q130.84-32.85 128.54-29.83 126.24-26.8 123.89-22.1L123.89-22.1Q125.69-21.75 127.22-21.3 128.74-20.85 129.99-20.35L129.99-20.35ZM136.79-37.5L136.79-37.5Q137.84-37.5 138.89-37.33 139.94-37.15 140.74-36.8L140.74-36.8 132.89 0 125.69 0 129.54-18.15Q127.79-18.95 126.24-19.38 124.69-19.8 122.84-19.95L122.84-19.95Q119.99-13.75 118.17-7.35 116.34-0.95 116.34 2.9L116.34 2.9Q116.34 3.8 116.52 4.48 116.69 5.15 117.04 5.7L117.04 5.7Q113.24 5.7 111.79 4.4 110.34 3.1 110.34 0.4L110.34 0.4Q110.34-2.95 112.37-8.55 114.39-14.15 117.69-19.95L117.69-19.95Q115.14-19.8 113.72-19.15 112.29-18.5 111.84-17.35L111.84-17.35Q112.04-17.35 112.27-16.82 112.49-16.3 112.49-15.8L112.49-15.8Q112.49-14.95 111.69-14.4 110.89-13.85 109.69-13.85L109.69-13.85Q108.29-13.85 107.44-14.63 106.59-15.4 106.59-16.75L106.59-16.75Q106.59-19.35 109.52-21.13 112.44-22.9 116.79-22.9L116.79-22.9Q117.29-22.9 117.94-22.88 118.59-22.85 119.39-22.75L119.39-22.75Q123.79-29.7 128.34-33.6 132.89-37.5 136.79-37.5ZM147.14-28.55L147.14-28.55Q147.14-32.4 150.47-34.95 153.79-37.5 158.69-37.5L158.69-37.5Q162.49-37.5 164.62-35.95 166.74-34.4 166.74-31.5L166.74-31.5Q166.74-29.25 165.62-27.85 164.49-26.45 162.64-26.45L162.64-26.45Q161.94-26.45 161.37-26.7 160.79-26.95 160.34-27.5L160.34-27.5Q161.34-28.1 161.97-29.3 162.59-30.5 162.59-31.8L162.59-31.8Q162.59-33.4 161.64-34.27 160.69-35.15 158.89-35.15L158.89-35.15Q156.74-35.15 155.52-33.95 154.29-32.75 154.29-30.6L154.29-30.6Q154.29-28.85 155.19-27.28 156.09-25.7 159.09-23.05L159.09-23.05Q163.04-19.6 164.29-17.07 165.54-14.55 165.54-11.45L165.54-11.45Q165.54-5.75 161.59-2.35 157.64 1.05 151.49 1.05L151.49 1.05Q146.59 1.05 143.74-1.2 140.89-3.45 140.89-7.55L140.89-7.55Q140.89-11.15 143.04-13.45 145.19-15.75 148.24-15.75L148.24-15.75Q150.14-15.75 151.34-14.88 152.54-14 152.64-12.45L152.64-12.45Q150.04-12.45 148.42-11.2 146.79-9.95 146.79-7.75L146.79-7.75Q146.79-5.65 148.09-4.3 149.39-2.95 151.59-2.95L151.59-2.95Q154.19-2.95 155.79-4.75 157.39-6.55 157.39-9.6L157.39-9.6Q157.39-11.95 156.34-14.1 155.29-16.25 151.99-19.85L151.99-19.85Q148.99-23.05 148.07-24.88 147.14-26.7 147.14-28.55ZM198.19-36.3L198.19-36.3Q199.69-36.3 201.24-36.58 202.79-36.85 203.99-37.35L203.99-37.35Q203.94-34.15 202.36-32.58 200.79-31 197.74-31L197.74-31Q196.29-31 194.51-31.25 192.74-31.5 189.99-32.1L189.99-32.1 183.09 0 175.89 0 182.99-33.1 182.39-33.1Q177.54-33.1 175.26-30.63 172.99-28.15 172.99-23L172.99-23Q172.99-22.05 173.11-21.35 173.24-20.65 173.54-20L173.54-20Q173.64-19.8 173.66-19.73 173.69-19.65 173.69-19.6L173.69-19.6Q170.89-19.6 169.61-20.78 168.34-21.95 168.34-24.45L168.34-24.45Q168.34-30.4 172.81-33.93 177.29-37.45 185.39-37.45L185.39-37.45Q187.04-37.45 188.56-37.33 190.09-37.2 192.49-36.85L192.49-36.85Q194.59-36.5 195.76-36.4 196.94-36.3 198.19-36.3ZM201.14-8.95L201.14-8.95Q201.14-6.55 202.36-5.23 203.59-3.9 205.89-3.9L205.89-3.9Q208.54-3.9 211.24-5.35 213.94-6.8 215.14-9L215.14-9 216.29-8.5Q214.44-4.25 210.36-1.68 206.29 0.9 201.64 0.9L201.64 0.9Q197.34 0.9 194.89-1.5 192.44-3.9 192.44-7.9L192.44-7.9Q192.44-12.25 195.09-16.07 197.74-19.9 201.69-20.85L201.69-20.85Q200.19-21.9 199.41-23.45 198.64-25 198.64-26.85L198.64-26.85Q198.64-31.05 201.86-34.33 205.09-37.6 209.59-37.6L209.59-37.6Q212.79-37.6 214.76-35.9 216.74-34.2 216.74-31.35L216.74-31.35Q216.74-29.15 215.66-27.65 214.59-26.15 213.04-26.15L213.04-26.15Q212.34-26.15 211.76-26.5 211.19-26.85 210.69-27.5L210.69-27.5Q211.59-27.8 212.24-29.13 212.89-30.45 212.89-31.85L212.89-31.85Q212.89-33.15 212.14-33.9 211.39-34.65 210.14-34.65L210.14-34.65Q208.04-34.65 206.54-32.52 205.04-30.4 205.04-27.6L205.04-27.6Q205.04-25.1 206.36-23.33 207.69-21.55 210.09-20.9L210.09-20.9Q206.39-20.05 203.76-16.43 201.14-12.8 201.14-8.95ZM241.88-19.15L237.78 0 230.58 0 237.38-31.8 244.78-32.8 242.43-21.7 242.73-21.7Q245.53-21.7 247.73-24.25 249.93-26.8 249.93-29.8L249.93-29.8Q249.93-32.3 248.21-33.75 246.48-35.2 243.33-35.2L243.33-35.2Q238.08-35.2 234.46-31.85 230.83-28.5 230.83-23.05L230.83-23.05Q230.83-22.1 230.96-21.4 231.08-20.7 231.38-20.05L231.38-20.05Q231.48-19.85 231.51-19.78 231.53-19.7 231.53-19.65L231.53-19.65Q228.83-19.65 227.51-20.8 226.18-21.95 226.18-24.25L226.18-24.25Q226.18-26.95 227.91-29.55 229.63-32.15 232.68-34.1L232.68-34.1Q235.18-35.75 238.21-36.63 241.23-37.5 244.33-37.5L244.33-37.5Q249.23-37.5 252.11-35.3 254.98-33.1 254.98-29.55L254.98-29.55Q254.98-27.2 253.63-25.05 252.28-22.9 249.98-21.6L249.98-21.6Q252.83-21.05 254.36-18.93 255.88-16.8 255.88-13.55L255.88-13.55Q255.88-11.2 255.18-8.6 254.48-6 253.23-4L253.23-4Q251.73-1.6 249.63-0.38 247.53 0.85 244.93 0.85L244.93 0.85Q242.58 0.85 241.28-0.1 239.98-1.05 239.98-2.85L239.98-2.85Q239.98-3.45 240.13-4.17 240.28-4.9 240.63-5.75L240.63-5.75Q241.58-4.8 242.36-4.38 243.13-3.95 243.98-3.95L243.98-3.95Q246.23-3.95 247.58-6.55 248.93-9.15 248.93-12.95L248.93-12.95Q248.93-16.1 247.73-17.7 246.53-19.3 244.18-19.3L244.18-19.3Q243.83-19.3 243.16-19.25 242.48-19.2 241.88-19.15L241.88-19.15ZM264.58-34L264.58-34Q267.13-35.65 270.05-36.58 272.98-37.5 275.78-37.5L275.78-37.5Q276.13-37.5 276.55-37.48 276.98-37.45 277.78-37.4L277.78-37.4 274.58-22.5 281.93-22.5 285.13-37.4 292.33-37.4 284.38 0 277.18 0 281.18-18.8 273.83-18.8 269.83 0 262.63 0 269.88-34Q266.48-32.6 264.68-29.78 262.88-26.95 262.88-23.05L262.88-23.05Q262.88-22.1 263-21.4 263.13-20.7 263.43-20.05L263.43-20.05Q263.53-19.85 263.55-19.78 263.58-19.7 263.58-19.65L263.58-19.65Q260.78-19.65 259.5-20.83 258.23-22 258.23-24.5L258.23-24.5Q258.23-27 259.9-29.5 261.58-32 264.58-34ZM299.43-23.95L299.43-23.95Q301.43-28.45 304.07-30.83 306.73-33.2 309.82-33.2L309.82-33.2Q310.52-33.2 311.18-33.1 311.82-33 312.43-32.8L312.43-32.8Q309.23-30.85 306.45-23.3 303.68-15.75 303.68-9.55L303.68-9.55Q303.68-6.75 304.43-5.25 305.18-3.75 306.57-3.75L306.57-3.75Q308.63-3.75 310.77-6.4 312.93-9.05 314.57-13.5L314.57-13.5Q315.77-16.65 316.4-20.03 317.02-23.4 317.02-26.45L317.02-26.45Q317.02-31.45 315.57-33.33 314.13-35.2 310.63-35.2L310.63-35.2Q304.48-35.2 300.35-31.58 296.23-27.95 296.23-22.35L296.23-22.35Q296.23-21.65 296.3-21.13 296.38-20.6 296.63-20.05L296.63-20.05Q296.68-19.85 296.7-19.78 296.73-19.7 296.73-19.65L296.73-19.65Q294.18-19.65 292.93-20.68 291.68-21.7 291.68-23.85L291.68-23.85Q291.68-26.65 293.65-29.38 295.63-32.1 299.13-34.15L299.13-34.15Q301.93-35.75 305.2-36.63 308.48-37.5 311.82-37.5L311.82-37.5Q317.73-37.5 320.7-34.27 323.68-31.05 323.68-24.7L323.68-24.7Q323.68-20.55 322.48-16.15 321.27-11.75 319.18-8.3L319.18-8.3Q316.63-4.1 313.07-1.9 309.52 0.3 305.23 0.3L305.23 0.3Q300.82 0.3 298.55-2.25 296.27-4.8 296.27-9.75L296.27-9.75Q296.27-12.95 297.13-16.82 297.98-20.7 299.43-23.95ZM332.67-23.95L332.67-23.95Q334.67-28.45 337.32-30.83 339.97-33.2 343.07-33.2L343.07-33.2Q343.77-33.2 344.42-33.1 345.07-33 345.67-32.8L345.67-32.8Q342.47-30.85 339.7-23.3 336.92-15.75 336.92-9.55L336.92-9.55Q336.92-6.75 337.67-5.25 338.42-3.75 339.82-3.75L339.82-3.75Q341.87-3.75 344.02-6.4 346.17-9.05 347.82-13.5L347.82-13.5Q349.02-16.65 349.65-20.03 350.27-23.4 350.27-26.45L350.27-26.45Q350.27-31.45 348.82-33.33 347.37-35.2 343.87-35.2L343.87-35.2Q337.72-35.2 333.6-31.58 329.47-27.95 329.47-22.35L329.47-22.35Q329.47-21.65 329.55-21.13 329.62-20.6 329.87-20.05L329.87-20.05Q329.92-19.85 329.95-19.78 329.97-19.7 329.97-19.65L329.97-19.65Q327.42-19.65 326.17-20.68 324.92-21.7 324.92-23.85L324.92-23.85Q324.92-26.65 326.9-29.38 328.87-32.1 332.37-34.15L332.37-34.15Q335.17-35.75 338.45-36.63 341.72-37.5 345.07-37.5L345.07-37.5Q350.97-37.5 353.95-34.27 356.92-31.05 356.92-24.7L356.92-24.7Q356.92-20.55 355.72-16.15 354.52-11.75 352.42-8.3L352.42-8.3Q349.87-4.1 346.32-1.9 342.77 0.3 338.47 0.3L338.47 0.3Q334.07 0.3 331.8-2.25 329.52-4.8 329.52-9.75L329.52-9.75Q329.52-12.95 330.37-16.82 331.22-20.7 332.67-23.95ZM364.02-34L364.02-34Q366.57-35.65 369.5-36.58 372.42-37.5 375.22-37.5L375.22-37.5Q375.57-37.5 376-37.48 376.42-37.45 377.22-37.4L377.22-37.4 373.97-22.1Q376.07-25 380.69-31.15 385.32-37.3 385.32-37.25L385.32-37.25 390.57-37.25 376.67-21.25Q376.87-21.25 377.05-21.25 377.22-21.25 377.62-21.3L377.62-21.3 378.42-21.3Q381.57-21.3 383.1-20 384.62-18.7 384.62-15.95L384.62-15.95Q384.62-14.8 384.37-13.33 384.12-11.85 383.27-8.85L383.27-8.85Q382.57-6.3 382.37-5.2 382.17-4.1 382.17-3.3L382.17-3.3Q382.17-2.15 382.69-1.25 383.22-0.35 384.12 0L384.12 0Q382.67 0.4 381.39 0.63 380.12 0.85 379.17 0.85L379.17 0.85Q377.22 0.85 376.25 0.03 375.27-0.8 375.27-2.5L375.27-2.5Q375.27-3.35 375.52-4.58 375.77-5.8 376.52-8.65L376.52-8.65Q377.37-11.75 377.64-13.18 377.92-14.6 377.92-15.65L377.92-15.65Q377.92-17.35 377.17-18.2 376.42-19.05 374.92-19.05L374.92-19.05Q374.67-19.05 374.35-19 374.02-18.95 373.27-18.85L373.27-18.85 369.27 0 362.07 0 369.32-34Q365.92-32.6 364.12-29.78 362.32-26.95 362.32-23.05L362.32-23.05Q362.32-22.1 362.44-21.4 362.57-20.7 362.87-20.05L362.87-20.05Q362.97-19.85 363-19.78 363.02-19.7 363.02-19.65L363.02-19.65Q360.22-19.65 358.94-20.83 357.67-22 357.67-24.5L357.67-24.5Q357.67-27 359.35-29.5 361.02-32 364.02-34ZM394.37-34L394.37-34Q396.92-35.65 399.84-36.58 402.77-37.5 405.57-37.5L405.57-37.5Q405.92-37.5 406.34-37.48 406.77-37.45 407.57-37.4L407.57-37.4 404.37-22.5 411.72-22.5 414.92-37.4 422.12-37.4 414.17 0 406.97 0 410.97-18.8 403.62-18.8 399.62 0 392.42 0 399.67-34Q396.27-32.6 394.47-29.78 392.67-26.95 392.67-23.05L392.67-23.05Q392.67-22.1 392.79-21.4 392.92-20.7 393.22-20.05L393.22-20.05Q393.32-19.85 393.34-19.78 393.37-19.7 393.37-19.65L393.37-19.65Q390.57-19.65 389.29-20.83 388.02-22 388.02-24.5L388.02-24.5Q388.02-27 389.69-29.5 391.37-32 394.37-34ZM444.52-20.35L447.42-33.95Q445.37-32.85 443.06-29.83 440.77-26.8 438.42-22.1L438.42-22.1Q440.22-21.75 441.74-21.3 443.27-20.85 444.52-20.35L444.52-20.35ZM451.31-37.5L451.31-37.5Q452.37-37.5 453.42-37.33 454.47-37.15 455.27-36.8L455.27-36.8 447.42 0 440.22 0 444.06-18.15Q442.31-18.95 440.77-19.38 439.22-19.8 437.37-19.95L437.37-19.95Q434.52-13.75 432.69-7.35 430.87-0.95 430.87 2.9L430.87 2.9Q430.87 3.8 431.04 4.48 431.22 5.15 431.56 5.7L431.56 5.7Q427.77 5.7 426.31 4.4 424.87 3.1 424.87 0.4L424.87 0.4Q424.87-2.95 426.89-8.55 428.92-14.15 432.22-19.95L432.22-19.95Q429.67-19.8 428.24-19.15 426.81-18.5 426.37-17.35L426.37-17.35Q426.56-17.35 426.79-16.82 427.02-16.3 427.02-15.8L427.02-15.8Q427.02-14.95 426.22-14.4 425.42-13.85 424.22-13.85L424.22-13.85Q422.81-13.85 421.97-14.63 421.12-15.4 421.12-16.75L421.12-16.75Q421.12-19.35 424.04-21.13 426.97-22.9 431.31-22.9L431.31-22.9Q431.81-22.9 432.47-22.88 433.12-22.85 433.92-22.75L433.92-22.75Q438.31-29.7 442.87-33.6 447.42-37.5 451.31-37.5ZM469.96-18.85L465.96 0 458.76 0 465.56-31.8 472.96-32.8 470.51-21.25 470.91-21.25Q473.76-21.25 475.89-24 478.01-26.75 478.01-29.95L478.01-29.95Q478.01-32.4 476.56-33.8 475.11-35.2 472.51-35.2L472.51-35.2Q466.31-35.2 462.66-31.93 459.01-28.65 459.01-23.05L459.01-23.05Q459.01-22.1 459.14-21.4 459.26-20.7 459.56-20.05L459.56-20.05Q459.66-19.85 459.69-19.78 459.71-19.7 459.71-19.65L459.71-19.65Q456.91-19.65 455.64-20.83 454.36-22 454.36-24.5L454.36-24.5Q454.36-27 456.04-29.5 457.71-32 460.71-34L460.71-34Q463.26-35.65 466.19-36.58 469.11-37.5 471.91-37.5L471.91-37.5Q477.16-37.5 480.21-35.3 483.26-33.1 483.26-29.5L483.26-29.5Q483.26-27.1 481.79-24.75 480.31-22.4 477.86-20.95L477.86-20.95Q479.61-20.45 480.46-19.23 481.31-18 481.31-15.95L481.31-15.95Q481.31-14.8 481.06-13.33 480.81-11.85 479.96-8.85L479.96-8.85Q479.26-6.3 479.06-5.2 478.86-4.1 478.86-3.3L478.86-3.3Q478.86-2.15 479.39-1.25 479.91-0.35 480.81 0L480.81 0Q479.36 0.4 478.09 0.63 476.81 0.85 475.86 0.85L475.86 0.85Q473.91 0.85 472.94 0.03 471.96-0.8 471.96-2.5L471.96-2.5Q471.96-3.35 472.21-4.58 472.46-5.8 473.21-8.65L473.21-8.65Q474.06-11.75 474.34-13.18 474.61-14.6 474.61-15.65L474.61-15.65Q474.61-17.35 473.86-18.2 473.11-19.05 471.61-19.05L471.61-19.05Q471.41-19.05 471.19-19.03 470.96-19 469.96-18.85L469.96-18.85ZM492.66-23.95L492.66-23.95Q494.66-28.45 497.31-30.83 499.96-33.2 503.06-33.2L503.06-33.2Q503.76-33.2 504.41-33.1 505.06-33 505.66-32.8L505.66-32.8Q502.46-30.85 499.69-23.3 496.91-15.75 496.91-9.55L496.91-9.55Q496.91-6.75 497.66-5.25 498.41-3.75 499.81-3.75L499.81-3.75Q501.86-3.75 504.01-6.4 506.16-9.05 507.81-13.5L507.81-13.5Q509.01-16.65 509.63-20.03 510.26-23.4 510.26-26.45L510.26-26.45Q510.26-31.45 508.81-33.33 507.36-35.2 503.86-35.2L503.86-35.2Q497.71-35.2 493.59-31.58 489.46-27.95 489.46-22.35L489.46-22.35Q489.46-21.65 489.54-21.13 489.61-20.6 489.86-20.05L489.86-20.05Q489.91-19.85 489.94-19.78 489.96-19.7 489.96-19.65L489.96-19.65Q487.41-19.65 486.16-20.68 484.91-21.7 484.91-23.85L484.91-23.85Q484.91-26.65 486.88-29.38 488.86-32.1 492.36-34.15L492.36-34.15Q495.16-35.75 498.44-36.63 501.71-37.5 505.06-37.5L505.06-37.5Q510.96-37.5 513.94-34.27 516.91-31.05 516.91-24.7L516.91-24.7Q516.91-20.55 515.71-16.15 514.51-11.75 512.41-8.3L512.41-8.3Q509.86-4.1 506.31-1.9 502.76 0.3 498.46 0.3L498.46 0.3Q494.06 0.3 491.79-2.25 489.51-4.8 489.51-9.75L489.51-9.75Q489.51-12.95 490.36-16.82 491.21-20.7 492.66-23.95Z" opacity="1" transform="matrix(1,0,0,1,0,0)" fill="#fce44d" class="wordmark-text-0" data-fill-palette-color="primary" id="text-0"></path></svg></g></svg></g></svg></g></svg></g><g transform="matrix(1,0,0,1,166.8543414816305,0)"><svg viewBox="0 0 61.81131703673897 45.81080830736476" height="45.81080830736476" width="61.81131703673897"><g><svg xmlns="http://www.w3.org/2000/svg" xmlns:xlink="http://www.w3.org/1999/xlink" version="1.1" x="8" y="0" viewBox="4.9670000076293945 5 90.0009994506836 90" enable-background="new 0 0 100 100" xml:space="preserve" height="45.81080830736476" width="45.81131703673897" class="icon-icon-0" data-fill-palette-color="accent" id="icon-0"><g fill="#fce44d" data-fill-palette-color="accent"><polygon points="81.588,69.219 76.042,77.733 49.901,5 30.566,58.797 24.486,43.546 4.967,95 17.555,95 45,95 64.794,95 82.249,95    94.968,95  " fill="#fce44d" data-fill-palette-color="accent"></polygon></g></svg></g></svg></g><g><rect width="166.8543414816305" height="2.9893386178815686" y="41.82146968948319" x="228.66565851836947" fill="#fce44d" data-fill-palette-color="accent"></rect><rect width="166.8543414816305" height="2.9893386178815686" y="41.82146968948319" x="0" fill="#fce44d" data-fill-palette-color="accent"></rect><rect width="166.8543414816305" height="2.9893386178815686" y="35.84279245372005" x="228.66565851836947" fill="#fce44d" data-fill-palette-color="accent"></rect><rect width="166.8543414816305" height="2.9893386178815686" y="35.84279245372005" x="0" fill="#fce44d" data-fill-palette-color="accent"></rect></g></svg></g><defs></defs></svg><rect width="395.52" height="86.78449911006679" fill="none" stroke="none" visibility="hidden"></rect></g></svg></g></svg>